<svg xmlns="http://www.w3.org/2000/svg" height="210.873" width="128.439"><path d="M66.001 5.465a17.726 17.726 0 00-1.426-3.262c.026.023-.076.01-.355.011a2.009 2.009 0 00-.415.022 23.607 23.607 0 00-1.367 3.23c-2.3 5.932-8.409 21.688-29.117 60.735-15.739 29.677-31.106 60.59-31.106 83.77 0 28.266 19.4 58.688 62.005 58.688 49.045 0 62-38.389 62-58.688 0-23.18-15.367-54.093-31.106-83.77C74.408 27.15 68.3 11.396 66.001 5.465z" fill="#85c3e9"/><path d="M126.224 149.971c0-7.542-1.646-15.911-4.383-24.781 2.286 19.965 2.958 74.362-57.621 74.362-59.909 0-60.468-51.618-58.463-71.5a81.558 81.558 0 00-3.542 21.915c0 28.266 19.4 58.688 62.005 58.688 49.045.004 62.004-38.385 62.004-58.684z" fill="#4495d7"/><g fill="#fff" transform="translate(-1357.058 -2088.722)"><path d="M1422.413 2261.561c15.785 0 30.356-12.142 30.356-36.832s-30.356-121.221-30.356-121.221-30.356 96.532-30.356 121.221 14.571 36.832 30.356 36.832z" opacity=".3"/><path d="M1421.278 2275.6c33.515 0 57.362-30.356 54.315-56.462 9.511 17.606-1.822 64.354-54.315 64.354s-63.827-46.748-54.315-64.354c-3.047 26.104 20.8 56.462 54.315 56.462z" opacity=".5"/><ellipse cx="1434.859" cy="2266.294" opacity=".5" rx="5.565" ry="3.44"/></g><path d="M64.22 209.873c47.681 0 63.219-36.022 63.219-59.9 0-23.678-15.588-54.811-31.248-84.339C62.61 2.314 67.739 1.002 64.22 1.002s1.61 1.312-31.972 64.632C16.588 95.162 1 126.295 1 149.973c0 23.878 15.542 59.9 63.22 59.9z" fill="none" stroke="#3e4147" stroke-linecap="round" stroke-linejoin="round" stroke-width="2"/></svg>
