<svg fill="none" height="141" viewBox="0 0 28 141" width="28" xmlns="http://www.w3.org/2000/svg" xmlns:xlink="http://www.w3.org/1999/xlink"><clipPath id="a"><path d="m0 0h141v28h-141z" transform="matrix(0 1 -1 0 28 0)"/></clipPath><g clip-path="url(#a)"><path d="m10.9961 132.109h5l-2.5 8.889z" fill="#8e8ea0"/><path d="m13.4922 0v91.0119 45.5481" stroke="#8e8ea0" stroke-miterlimit="16"/><path d="m11 80.9665v-1.0616l-1.99501-.6884v-3.6283l1.99501-.7117v-1.0617l-8.16669 3.0451v1.0733zm-2.84668-2.0416-4.35168-1.5284 4.35168-1.5166zm3.00998-9.25c0-1.7617-.945-3.08-2.44997-3.08-1.06167 0-1.73834.6883-2.01834 1.7383l-.61834 2.3334c-.175.6533-.53667.945-1.16667.945-.91 0-1.4-.7467-1.4-1.8317 0-1.2017.64167-1.8783 1.54-1.8783h.175v-.9917h-.19833c-1.40001 0-2.35668 1.1667-2.35668 2.87 0 1.715.86334 2.87 2.32168 2.87 1.00333 0 1.66834-.4783 1.97167-1.6683l.595-2.275c.18667-.7117.61834-1.0734 1.23667-1.0734.98001 0 1.52831.77 1.52831 2.03 0 1.295-.66497 2.0767-1.63331 2.0767h-.18666v1.015h.21c1.51667 0 2.44997-1.295 2.44997-3.08zm-.1633-6.1956v-1.0733h-7.26836v-2.45h-.89833v5.9733h.89833v-2.45zm14 21.2522v-1.19l-8.1667-2.8v1.0617l7.0817 2.3333-7.0817 2.345v1.0617zm-6.9534-5.7047c0-.3734-.2566-.6417-.6183-.6417s-.6183.2683-.6183.6417c0 .385.2566.6416.6183.6416s.6183-.2566.6183-.6416zm6.9534.525v-1.0384h-5.9967v1.0384zm.14-5.1548c0-1.4233-.7933-2.4733-1.8783-2.4733-.8634 0-1.3184.525-1.54 1.4466l-.4434 1.8317c-.0933.4083-.3266.595-.7116.595-.6067 0-.9334-.5483-.9334-1.33 0-.8517.455-1.33 1.1317-1.33h.0467v-.9333h-.0584c-1.1316 0-1.89.9566-1.89 2.2516 0 1.3417.6067 2.31 1.7617 2.31.805 0 1.33-.5016 1.5283-1.4l.4084-1.7733c.105-.455.3733-.7.77-.7.7 0 1.0383.63 1.0383 1.4933 0 .9217-.4433 1.575-1.1433 1.575h-.0467v.945h.07c1.19 0 1.89-1.0383 1.89-2.5083zm-7.0934-4.519c0-.3734-.2566-.6417-.6183-.6417s-.6183.2683-.6183.6417c0 .385.2566.6416.6183.6416s.6183-.2566.6183-.6416zm6.9534.525v-1.0384h-5.9967v1.0384zm0-5.0381v-.8284h-.8517v.6067c0 .6183-.2333.8167-.7933.8167h-3.5v-1.47h-.8517v1.47h-1.7033v1.05h1.7033v.98h.8517v-.98h3.5233c1.0267 0 1.6217-.49 1.6217-1.645zm.14-4.6445c0-1.715-1.1667-2.7066-2.66-2.7066h-.9567c-1.4816 0-2.66.9916-2.66 2.7066 0 1.7267 1.1784 2.7184 2.66 2.7184h.9567c1.4933 0 2.66-.9917 2.66-2.7184zm-.8283 0c0 1.12-.7584 1.7034-1.82 1.7034h-.98c-1.05 0-1.8084-.5834-1.8084-1.7034 0-1.1083.7584-1.6916 1.8084-1.6916h.98c1.0616 0 1.82.5833 1.82 1.6916zm.6883-4.2384v-1.0383h-2.905c-1.435 0-2.135-.6883-2.135-1.7967v-.21h-.9917v.1517c0 1.0383.455 1.7033 1.365 1.9133h-1.33v.98z" fill="#191927"/></g></svg>